<?xml version="1.0" encoding="UTF-8"?>
<svg xmlns="http://www.w3.org/2000/svg" xmlns:xlink="http://www.w3.org/1999/xlink" width="70px" height="70px" viewBox="0 0 70 70" version="1.1">
<g id="surface1">
<path style=" stroke:none;fill-rule:nonzero;fill:rgb(30.196078%,30.196078%,30.196078%);fill-opacity:1;" d="M 22.9375 44.183594 C 22.9375 44.183594 20.628906 48.234375 19.90625 51.214844 C 19.191406 54.191406 19.582031 55.355469 20.367188 57.78125 C 21.261719 60.554688 22.351562 62.808594 24.445312 61.480469 C 26.140625 60.402344 26.320312 57.808594 26.0625 56.78125 C 25.808594 55.753906 25.578125 54.320312 25.679688 53.703125 C 25.785156 53.085938 26.9375 50.289062 27.863281 48.957031 C 28.789062 47.621094 28.789062 45.667969 28.632812 45.515625 C 28.476562 45.363281 22.9375 44.183594 22.9375 44.183594 Z M 22.9375 44.183594 "/>
<path style=" stroke:none;fill-rule:nonzero;fill:rgb(30.196078%,30.196078%,30.196078%);fill-opacity:1;" d="M 28.300781 64.175781 C 28.300781 64.175781 27.644531 67.796875 27.996094 67.796875 C 28.339844 67.796875 30.765625 67.679688 31.613281 67.101562 C 32.460938 66.523438 33.222656 64.558594 33.921875 62.328125 C 34.769531 59.632812 35.953125 56.175781 36.230469 55.320312 C 36.746094 53.757812 37.308594 52.167969 37.308594 52.167969 C 37.308594 52.167969 39.921875 51.929688 41.539062 51.859375 C 44.121094 51.746094 45.914062 51.625 46.316406 51.898438 C 46.816406 52.242188 49.132812 53.800781 49.699219 54.632812 C 50.546875 55.863281 47.621094 61.636719 47.621094 61.636719 C 47.621094 61.636719 45.542969 63.488281 45.621094 64.527344 C 45.695312 65.566406 47.699219 65.449219 49.46875 65.375 C 51.242188 65.296875 52.1875 64.792969 52.433594 64.527344 C 53.359375 63.523438 54.320312 60.789062 54.9375 58.558594 C 55.53125 56.421875 56.324219 55.09375 56.09375 53.707031 C 55.863281 52.324219 48.859375 46.398438 48.859375 46.398438 L 31.652344 50.554688 Z M 28.300781 64.175781 "/>
<path style=" stroke:none;fill-rule:nonzero;fill:rgb(30.196078%,30.196078%,30.196078%);fill-opacity:1;" d="M 18.605469 15.945312 L 27.640625 12.304688 C 27.640625 12.304688 26.765625 9.996094 25.636719 7.996094 C 24.511719 5.992188 21.996094 2.246094 20.8125 2.554688 C 19.632812 2.859375 18.398438 8.570312 18.117188 10.101562 C 17.550781 13.222656 18.605469 15.945312 18.605469 15.945312 Z M 18.605469 15.945312 "/>
<path style=" stroke:none;fill-rule:nonzero;fill:rgb(69.019608%,69.411765%,69.803922%);fill-opacity:1;" d="M 10.238281 23.925781 C 10.222656 23.925781 8.367188 23.925781 7.105469 23.886719 C 5.835938 23.847656 4.652344 23.8125 4.652344 23.8125 C 4.652344 23.8125 4.070312 23.792969 4.070312 23.21875 C 4.070312 22.640625 4.675781 22.667969 4.675781 22.667969 C 4.675781 22.667969 5.863281 22.707031 7.136719 22.746094 C 8.382812 22.78125 10.222656 22.78125 10.238281 22.78125 C 10.554688 22.78125 10.8125 23.039062 10.8125 23.355469 C 10.8125 23.675781 10.554688 23.925781 10.238281 23.925781 Z M 10.238281 23.925781 "/>
<path style=" stroke:none;fill-rule:nonzero;fill:rgb(69.019608%,69.411765%,69.803922%);fill-opacity:1;" d="M 4.6875 27.398438 C 4.6875 27.398438 4.144531 27.546875 4.023438 26.957031 C 3.90625 26.359375 4.441406 26.277344 4.441406 26.277344 C 4.441406 26.277344 6.011719 25.8125 7.09375 25.582031 C 8.164062 25.351562 10.394531 24.933594 10.417969 24.925781 C 10.730469 24.867188 11.03125 25.074219 11.089844 25.386719 C 11.152344 25.699219 10.941406 26 10.632812 26.058594 C 10.609375 26.0625 8.394531 26.484375 7.332031 26.710938 C 6.257812 26.933594 4.6875 27.398438 4.6875 27.398438 Z M 4.6875 27.398438 "/>
<path style=" stroke:none;fill-rule:nonzero;fill:rgb(69.019608%,69.411765%,69.803922%);fill-opacity:1;" d="M 7.339844 30.355469 C 7.152344 30.355469 6.972656 30.265625 6.859375 30.101562 C 6.683594 29.835938 6.753906 29.480469 7.015625 29.300781 L 10.011719 26.957031 C 10.277344 26.78125 10.632812 26.851562 10.8125 27.113281 C 10.988281 27.375 10.914062 27.730469 10.652344 27.914062 L 7.84375 30.128906 C 7.742188 30.191406 7.449219 30.355469 7.339844 30.355469 Z M 7.339844 30.355469 "/>
<path style=" stroke:none;fill-rule:nonzero;fill:rgb(36.470588%,38.431373%,39.607843%);fill-opacity:1;" d="M 19.984375 36.84375 C 19.984375 37.300781 20.304688 40.714844 20.675781 43.152344 C 21.058594 45.695312 22.21875 47.621094 24.527344 49.160156 C 27.300781 51.007812 29.761719 51.3125 29.761719 51.3125 C 29.761719 51.3125 28.914062 56.546875 27.757812 60.015625 C 27.550781 60.644531 26.300781 63.207031 26.027344 63.632812 C 25.753906 64.0625 25.023438 65.292969 25.140625 66.175781 C 25.265625 67.140625 25.988281 68.253906 29.066406 67.636719 C 31.558594 67.140625 31.800781 64.625 32.535156 62.585938 C 32.808594 61.820312 34.507812 57.09375 34.839844 55.988281 C 35.578125 53.542969 35.996094 51.898438 36.382812 51.472656 C 36.765625 51.050781 40.851562 50.855469 43.390625 50.699219 C 45.933594 50.546875 50.011719 50.472656 50.011719 50.472656 C 50.011719 50.472656 51.746094 51.894531 53.671875 52.777344 C 56.667969 54.15625 59.484375 54.550781 60.789062 56.324219 C 62.054688 58.027344 61.847656 59.675781 61.5625 61.058594 C 61.101562 63.289062 60.261719 64.519531 60.40625 65.328125 C 60.597656 66.40625 61.636719 66.523438 63.792969 66.558594 C 65.875 66.597656 66.28125 66.183594 66.679688 65.175781 C 68.261719 61.183594 65.71875 56.015625 65.527344 52.585938 C 65.433594 50.964844 62.867188 50.507812 62.292969 48.121094 C 61.714844 45.734375 61.539062 43.308594 60.84375 40.921875 C 60.089844 38.320312 59.148438 36.121094 59.148438 36.121094 C 59.148438 36.121094 61.828125 34.492188 63.488281 32.679688 C 65.144531 30.871094 67.507812 28.46875 66.539062 23.722656 C 65.765625 19.949219 63.25 17.433594 57.285156 15.546875 C 51.382812 13.683594 50.179688 15.847656 50.011719 17.265625 C 49.78125 19.191406 52.242188 19.855469 54.863281 20.355469 C 57.480469 20.851562 62.496094 22.449219 61.019531 26.824219 C 60.097656 29.558594 56.015625 31.226562 56.015625 31.226562 C 56.015625 31.226562 52.089844 30.636719 46.78125 31.214844 C 42.492188 31.691406 40.457031 32.8125 40 32.609375 C 39.304688 32.304688 39.769531 31.304688 40.5 30.148438 C 41.660156 28.316406 43.082031 25.917969 43.082031 22.914062 C 43.082031 19.910156 41.660156 18.292969 41.660156 18.292969 C 41.660156 18.292969 41.621094 12.402344 40.773438 9.054688 C 39.925781 5.710938 38.347656 1.816406 36.691406 1.738281 C 35.03125 1.664062 32.105469 5.703125 31.339844 6.972656 C 30.574219 8.242188 29.300781 10.859375 29.300781 10.859375 C 29.300781 10.859375 24.816406 10.320312 21.066406 12.128906 C 17.773438 13.714844 15.753906 18.675781 14.753906 19.058594 C 13.753906 19.441406 11.390625 19.355469 10.46875 20.894531 C 10.085938 21.53125 10.046875 25.757812 10.046875 25.757812 C 10.046875 25.757812 10.335938 26.757812 10.640625 27.632812 C 10.882812 28.316406 12.128906 30.148438 13.628906 31.25 C 15.574219 32.675781 18.179688 34.695312 18.753906 35.152344 C 19.328125 35.613281 19.984375 36.84375 19.984375 36.84375 Z M 19.984375 36.84375 "/>
<path style=" stroke:none;fill-rule:nonzero;fill:rgb(100%,67.058824%,57.647059%);fill-opacity:1;" d="M 31.304688 13.246094 C 31.339844 14.054688 33.191406 15.132812 34.152344 15.828125 C 35.113281 16.519531 36.5 18.042969 37.039062 17.941406 C 37.996094 17.773438 37.925781 13.710938 37.734375 11.898438 C 37.542969 10.089844 36.582031 7.085938 35.960938 6.859375 C 35.34375 6.628906 33.746094 8.929688 33.34375 9.554688 C 32.648438 10.632812 31.265625 12.519531 31.304688 13.246094 Z M 31.304688 13.246094 "/>
<path style=" stroke:none;fill-rule:nonzero;fill:rgb(18.431373%,18.431373%,18.431373%);fill-opacity:1;" d="M 11.828125 24.394531 C 12.085938 24.089844 15.96875 23.0625 16.09375 22.367188 C 16.21875 21.671875 15.300781 21.109375 13.683594 20.726562 C 12.226562 20.382812 10.898438 20.519531 10.570312 20.753906 C 10.132812 21.058594 9.648438 22.628906 9.777344 24.222656 C 9.910156 25.867188 10.46875 27.210938 11.1875 27.941406 C 11.691406 28.449219 12.917969 29.246094 13.996094 29.324219 C 15.070312 29.398438 16.074219 28.941406 16.613281 28.398438 C 17.15625 27.859375 16.765625 26.988281 15.945312 27.476562 C 15.125 27.960938 14.578125 28.109375 13.867188 27.914062 C 13.125 27.703125 12.058594 26.976562 11.835938 25.785156 C 11.691406 25.074219 11.828125 24.394531 11.828125 24.394531 Z M 11.828125 24.394531 "/>
<path style=" stroke:none;fill-rule:nonzero;fill:rgb(69.019608%,69.411765%,69.803922%);fill-opacity:1;" d="M 27.957031 29.335938 C 27.867188 29.335938 27.78125 29.3125 27.699219 29.273438 C 27.683594 29.269531 26.164062 28.496094 24.84375 28.109375 C 23.488281 27.710938 22.21875 27.402344 22.203125 27.398438 C 21.898438 27.320312 21.707031 27.015625 21.777344 26.703125 C 21.851562 26.398438 22.160156 26.207031 22.472656 26.277344 C 22.480469 26.28125 23.785156 26.59375 25.167969 27.003906 C 26.589844 27.425781 28.148438 28.21875 28.214844 28.25 C 28.449219 28.371094 28.574219 28.636719 28.511719 28.894531 C 28.449219 29.152344 28.222656 29.335938 27.957031 29.335938 Z M 27.957031 29.335938 "/>
<path style=" stroke:none;fill-rule:nonzero;fill:rgb(69.019608%,69.411765%,69.803922%);fill-opacity:1;" d="M 27.367188 33.289062 C 27.246094 33.289062 27.125 33.25 27.027344 33.171875 C 27.011719 33.164062 25.25 31.859375 24.117188 31.078125 C 23.019531 30.324219 21.496094 29.617188 21.480469 29.613281 C 21.203125 29.476562 21.085938 29.144531 21.214844 28.859375 C 21.34375 28.578125 21.671875 28.449219 21.957031 28.570312 C 22.023438 28.601562 23.582031 29.316406 24.761719 30.132812 C 25.910156 30.925781 27.6875 32.234375 27.703125 32.25 C 27.960938 32.433594 28.011719 32.796875 27.824219 33.054688 C 27.714844 33.207031 27.539062 33.289062 27.367188 33.289062 Z M 27.367188 33.289062 "/>
<path style=" stroke:none;fill-rule:nonzero;fill:rgb(69.019608%,69.411765%,69.803922%);fill-opacity:1;" d="M 24.648438 35.289062 C 24.511719 35.289062 24.375 35.242188 24.265625 35.140625 L 20.46875 31.757812 C 20.234375 31.542969 20.210938 31.183594 20.425781 30.949219 C 20.640625 30.710938 21 30.691406 21.234375 30.902344 L 25.03125 34.289062 C 25.207031 34.449219 25.265625 34.699219 25.183594 34.921875 C 25.097656 35.140625 24.886719 35.289062 24.648438 35.289062 Z M 24.648438 35.289062 "/>
<path style=" stroke:none;fill-rule:nonzero;fill:rgb(0.392157%,0%,0%);fill-opacity:1;" d="M 24.230469 18.910156 C 23.25 18.34375 21.871094 18.894531 21.152344 20.140625 C 20.433594 21.386719 20.648438 22.851562 21.628906 23.417969 C 22.609375 23.984375 23.988281 23.4375 24.707031 22.191406 C 25.425781 20.945312 25.210938 19.476562 24.230469 18.910156 Z M 24.230469 18.910156 "/>
<path style=" stroke:none;fill-rule:nonzero;fill:rgb(87.058824%,87.058824%,87.058824%);fill-opacity:1;" d="M 22.753906 20.777344 C 22.453125 21.339844 21.929688 21.699219 21.496094 21.433594 C 21.066406 21.164062 21.3125 20.304688 21.550781 19.984375 C 21.792969 19.660156 22.226562 19.253906 22.652344 19.523438 C 23.089844 19.796875 22.957031 20.402344 22.753906 20.777344 Z M 22.753906 20.777344 "/>
</g>
</svg>
