<?xml version="1.0" encoding="UTF-8"?>
<svg xmlns="http://www.w3.org/2000/svg" xmlns:xlink="http://www.w3.org/1999/xlink" width="70px" height="70px" viewBox="0 0 70 70" version="1.1">
<g id="surface1">
<path style=" stroke:none;fill-rule:evenodd;fill:rgb(91.372549%,35.686275%,27.843137%);fill-opacity:1;" d="M 24.617188 5.75 C 18.820312 6.1875 6.71875 11.632812 7.003906 20.601562 C 7.207031 26.953125 9.636719 31.601562 15.976562 32.175781 C 18.050781 32.363281 19.773438 31.964844 21.335938 31.445312 L 21.335938 24.421875 L 10.285156 24.421875 C 10.164062 24.421875 10.066406 24.324219 10.066406 24.203125 L 10.066406 21.472656 L 19.988281 17.882812 C 20.011719 17.875 20.035156 17.871094 20.058594 17.871094 L 56.027344 17.394531 C 54.320312 14.464844 51.378906 13.066406 47.257812 13.066406 C 44.894531 13.066406 42.285156 14.273438 40.335938 15.175781 C 38.816406 15.878906 37.703125 16.394531 37.414062 16.015625 C 36.648438 14.996094 36.5 14.046875 36.347656 13.082031 C 36.175781 11.976562 35.996094 10.851562 34.898438 9.570312 C 32.109375 6.324219 28.890625 5.425781 24.617188 5.75 Z M 57.476562 22.804688 L 55.027344 24.421875 L 44.414062 24.421875 L 44.414062 45.25 L 56.777344 45.5 L 56.777344 48.578125 C 56.777344 48.632812 56.753906 48.6875 56.714844 48.730469 L 49.773438 55.980469 L 26.226562 55.230469 C 26.550781 58.007812 27.898438 60.566406 30.523438 62.316406 C 36.429688 66.246094 43.9375 63.335938 45.835938 62.316406 C 57.433594 56.089844 63.886719 43.097656 62.902344 37.527344 C 62.222656 33.691406 59.136719 32.457031 56.507812 31.410156 C 55.320312 30.9375 54.230469 30.503906 53.496094 29.882812 C 53.027344 29.488281 53.523438 29.058594 54.304688 28.382812 C 55.5 27.351562 57.359375 25.742188 57.476562 22.804688 Z M 53.167969 36.652344 C 53.226562 35.023438 51.953125 33.65625 50.320312 33.59375 C 48.757812 33.777344 47.640625 35.082031 47.695312 36.652344 C 47.753906 38.160156 48.8125 39.433594 50.320312 39.492188 C 51.890625 39.554688 53.109375 38.21875 53.167969 36.652344 Z M 53.167969 36.652344 "/>
<path style="fill:none;stroke-width:5;stroke-linecap:round;stroke-linejoin:miter;stroke:rgb(0%,0%,0%);stroke-opacity:1;stroke-miterlimit:4;" d="M 46.017857 98.160714 L 91.375 81.75 C 91.482143 81.714286 91.589286 81.696429 91.696429 81.696429 L 281.053571 79.196429 M 46.017857 98.160714 L 46.017857 110.642857 C 46.017857 111.196429 46.464286 111.642857 47.017857 111.642857 L 97.535714 111.642857 M 46.017857 98.160714 L 176.535714 98.160714 M 250.553571 98.160714 L 281.053571 79.196429 M 250.553571 98.160714 L 251.553571 111.642857 M 250.553571 98.160714 L 226.535714 98.160714 M 281.053571 79.196429 L 281.053571 91.642857 C 281.053571 91.982143 280.875 92.285714 280.607143 92.464286 L 251.553571 111.642857 M 251.553571 111.642857 L 230.035714 111.642857 M 97.535714 111.642857 L 203.035714 111.642857 M 97.535714 111.642857 L 97.535714 204.732143 M 203.035714 111.642857 L 230.035714 111.642857 M 203.035714 111.642857 L 203.035714 206.857143 M 259.553571 208 L 259.553571 222.071429 C 259.553571 222.321429 259.446429 222.571429 259.267857 222.767857 L 227.535714 255.910714 M 259.553571 208 L 227.535714 243.446429 M 259.553571 208 L 203.035714 206.857143 M 227.535714 255.910714 L 40.5 249.964286 C 39.946429 249.946429 39.517857 249.5 39.517857 248.964286 L 39.517857 237.446429 M 227.535714 255.910714 L 227.535714 243.446429 M 39.517857 237.446429 L 85.25 204.696429 C 85.428571 204.571429 85.642857 204.5 85.857143 204.5 L 97.535714 204.732143 M 39.517857 237.446429 L 227.535714 243.446429 M 230.035714 111.642857 C 230.035714 111.642857 230.035714 137.196429 230.035714 153.571429 M 230.035714 153.571429 C 222.892857 154.410714 217.785714 160.375 218.035714 167.553571 C 218.303571 174.446429 223.142857 180.267857 230.035714 180.535714 C 237.214286 180.821429 242.785714 174.714286 243.053571 167.553571 C 243.321429 160.107143 237.5 153.857143 230.035714 153.571429 Z M 97.535714 204.732143 L 97.535714 220.035714 C 97.535714 220.321429 97.625 220.571429 97.839286 220.767857 C 117.714286 238.857143 191.446429 238.357143 202.892857 220.714286 C 203 220.553571 203.035714 220.375 203.035714 220.196429 L 203.035714 206.857143 M 172.035714 121.125 C 173.75 120.75 175.214286 120.660714 180.535714 121.125 M 189.535714 123.625 C 190.642857 127.196429 190.607143 129.053571 189.535714 132.107143 M 120.035714 190.517857 C 120.464286 194.214286 120.410714 196.321429 120.035714 200 M 109.535714 195.017857 C 109.321429 196.732143 109.285714 197.785714 109.535714 200 M 119.035714 212.982143 C 119.232143 215.553571 119.303571 216.946429 119.035714 218.982143 M 228.535714 215.482143 C 232.178571 214.375 233.875 214.017857 235.553571 214.482143 M 224.035714 229.964286 C 224.071429 228.232143 224.839286 227.160714 228.535714 224.964286 M 255.553571 136.107143 C 261.982143 135.464286 265 136.178571 268.553571 140.607143 M 249.053571 145.089286 C 254.196429 145.839286 256.428571 147.303571 258.053571 153.571429 " transform="matrix(0.21875,0,0,0.21875,0,0)"/>
</g>
</svg>
