<?xml version="1.0" encoding="UTF-8"?>
<svg xmlns="http://www.w3.org/2000/svg" xmlns:xlink="http://www.w3.org/1999/xlink" width="70px" height="70px" viewBox="0 0 70 70" version="1.1">
<g id="surface1">
<path style=" stroke:none;fill-rule:evenodd;fill:rgb(13.72549%,11.764706%,32.941176%);fill-opacity:1;" d="M 22.234375 7.941406 C 14.050781 7.175781 5.523438 13.253906 4.484375 21.394531 C 4.265625 23.113281 4.375 25.359375 4.886719 27.839844 L 31.546875 17.171875 L 34.183594 18.265625 C 33.851562 16.410156 33.359375 14.414062 32.203125 12.972656 C 29.492188 9.578125 26.5625 8.34375 22.234375 7.941406 Z M 39.402344 20.429688 L 63.402344 30.378906 C 63.421875 30.09375 63.429688 29.828125 63.429688 29.597656 C 63.429688 24.324219 62.664062 21.046875 58.828125 18.222656 C 54.46875 15.011719 47.980469 13.738281 43.378906 16.582031 C 41.691406 17.625 40.4375 19.109375 39.402344 20.429688 Z M 39.402344 20.429688 "/>
<path style="fill:none;stroke-width:5;stroke-linecap:round;stroke-linejoin:miter;stroke:rgb(0%,0%,0%);stroke-opacity:1;stroke-miterlimit:4;" d="M 13 131 L 13 218.339286 C 13 218.732143 13.232143 219.107143 13.607143 219.25 L 164.75 283 M 13 131 L 65.089286 155.910714 M 13 131 L 66.589286 109.553571 L 136.714286 81.5 L 144.214286 78.5 M 164.75 283 L 306.410714 219.267857 C 306.767857 219.107143 307 218.75 307 218.357143 L 307 146 M 164.75 283 L 167.767857 205 M 307 146 L 144.214286 78.5 M 307 146 L 274.410714 159.803571 C 274.125 159.928571 273.892857 160.178571 273.821429 160.5 L 271.196429 172 M 144.214286 78.5 L 144.214286 121.839286 M 167.767857 205 L 203.964286 189.857143 C 204.446429 189.660714 205 189.875 205.232143 190.339286 L 216.928571 214.160714 C 217.160714 214.625 217.732143 214.839286 218.214286 214.642857 L 265.446429 195.196429 C 265.75 195.071429 265.964286 194.803571 266.053571 194.5 L 271.196429 172 M 167.767857 205 L 135.339286 189.5 M 65.089286 155.910714 C 65.089286 155.910714 64.285714 136.410714 72.607143 136 C 77.589286 135.75 79.196429 140.696429 84.125 141.5 C 92.857143 142.946429 95.142857 128 102.160714 131 C 104.25 131.892857 103.517857 135.410714 105.160714 137 C 111.392857 143.035714 115.178571 121.5 123.178571 123 C 126.928571 123.696429 125.946429 128.928571 129.696429 129.5 C 135.267857 130.357143 139.375 122.767857 144.214286 121.839286 M 65.089286 155.910714 L 85.625 165.732143 M 271.196429 172 C 271.196429 172 263.928571 168 252.910714 171 C 247.107143 172.571429 252.089286 152.589286 243.392857 151.5 C 238.607143 150.892857 236.517857 157.196429 231.875 155.910714 C 226.178571 154.321429 228.875 145.5 224.857143 142.5 C 219.357143 138.375 207.232143 152.446429 200.321429 146 C 196.607143 142.535714 200.357143 135.767857 195.803571 133.5 C 190.803571 131 174.767857 143.5 169.767857 136 C 167.589286 132.75 171.196429 129.089286 168.267857 126.5 C 163.75 122.5 158.25 133.5 151.732143 131 C 147.875 129.517857 150.660714 123.303571 146.732143 122 C 145.857143 121.714286 145.035714 121.678571 144.214286 121.839286 M 106.160714 155.910714 C 106.160714 155.910714 111.428571 143.089286 116.678571 145.5 C 119.339286 146.732143 121.178571 151.5 121.178571 151.5 M 134.214286 163 C 134.214286 163 138.053571 155.553571 142.214286 155.910714 C 146.964286 156.303571 139.714286 166.196429 145.232143 164.589286 C 150.732143 163 155.25 154 160.75 158.5 M 155.25 177 C 155.25 177 165.125 172.892857 167.767857 177 C 169.446429 179.625 167.767857 185 167.767857 185 M 184.285714 170 C 184.285714 170 192.339286 159.035714 195.803571 163 C 198.125 165.642857 195.803571 172 195.803571 172 M 217.839286 173.5 C 222.482143 168.964286 226.857143 174 230.875 168.5 M 226.857143 195 C 226.857143 195 225.339286 186.857143 228.875 185 C 232.5 183.089286 234.732143 191.392857 238.375 189.5 C 241.517857 187.875 238.160714 182.428571 241.392857 181 C 244.75 179.517857 249.910714 185 249.910714 185 M 24.017857 196.5 L 24.017857 205 M 40.053571 202 L 40.053571 205 M 30.035714 210.5 L 31.535714 216.5 M 155.25 215 L 155.25 219 M 145.232143 223 L 145.232143 228 M 178.285714 265.5 L 184.285714 262.5 M 289.464286 166.5 L 295.482143 163 M 295.482143 172 L 295.482143 179 " transform="matrix(0.21875,0,0,0.21875,0,0)"/>
</g>
</svg>
