<?xml version="1.0" encoding="UTF-8"?>
<svg xmlns="http://www.w3.org/2000/svg" xmlns:xlink="http://www.w3.org/1999/xlink" width="70px" height="70px" viewBox="0 0 70 70" version="1.1">
<g id="surface1">
<path style=" stroke:none;fill-rule:nonzero;fill:rgb(58.039216%,44.313725%,31.764706%);fill-opacity:1;" d="M 15.421875 50.53125 C 8.75 49.984375 3.28125 41.5625 3.28125 41.5625 C 3.28125 51.953125 12.46875 55.78125 16.625 54.359375 C 20.34375 53.15625 15.421875 50.53125 15.421875 50.53125 Z M 15.421875 50.53125 "/>
<path style=" stroke:none;fill-rule:nonzero;fill:rgb(91.764706%,73.72549%,57.254902%);fill-opacity:1;" d="M 45.171875 61.25 C 47.03125 63.4375 55.5625 61.25 56.984375 58.734375 C 62.5625 48.34375 56.984375 41.671875 56.984375 41.671875 L 45.171875 45.28125 C 45.171875 45.390625 42.765625 58.515625 45.171875 61.25 "/>
<path style=" stroke:none;fill-rule:nonzero;fill:rgb(96.078431%,81.960784%,67.45098%);fill-opacity:1;" d="M 37.1875 66.0625 C 39.265625 68.46875 46.8125 68.359375 49 66.0625 C 52.28125 62.78125 52.0625 47.796875 52.28125 40.578125 L 38.390625 39.375 C 38.390625 39.375 34.5625 62.890625 37.1875 66.0625 "/>
<path style=" stroke:none;fill-rule:nonzero;fill:rgb(91.764706%,73.72549%,57.254902%);fill-opacity:1;" d="M 29.203125 61.25 C 27.34375 63.4375 18.8125 61.25 17.390625 58.734375 C 11.8125 48.34375 17.390625 41.671875 17.390625 41.671875 L 29.203125 45.28125 C 29.203125 45.390625 31.71875 58.515625 29.203125 61.25 "/>
<path style=" stroke:none;fill-rule:nonzero;fill:rgb(96.078431%,81.960784%,67.45098%);fill-opacity:1;" d="M 37.296875 66.0625 C 35.21875 68.46875 27.671875 68.359375 25.484375 66.0625 C 22.203125 62.78125 22.421875 47.796875 22.203125 40.578125 L 36.09375 39.375 C 36.09375 39.375 39.921875 62.890625 37.296875 66.0625 "/>
<path style=" stroke:none;fill-rule:nonzero;fill:rgb(25.882353%,19.607843%,13.72549%);fill-opacity:1;" d="M 37.1875 66.171875 C 36.859375 63.875 36.75 61.578125 36.75 59.28125 C 36.75 56.984375 36.859375 54.6875 37.1875 52.390625 C 37.515625 54.6875 37.625 56.984375 37.625 59.28125 C 37.625 61.578125 37.515625 63.875 37.1875 66.171875 "/>
<path style=" stroke:none;fill-rule:nonzero;fill:rgb(24.313725%,26.27451%,27.843137%);fill-opacity:1;" d="M 37.1875 50.859375 C 26.03125 50.859375 20.34375 46.484375 20.34375 46.484375 C 20.34375 46.484375 24.0625 56.4375 37.1875 56.4375 C 50.3125 56.4375 54.03125 46.484375 54.03125 46.484375 C 54.03125 46.484375 48.34375 50.859375 37.1875 50.859375 "/>
<path style=" stroke:none;fill-rule:nonzero;fill:rgb(100%,100%,100%);fill-opacity:1;" d="M 34.015625 53.59375 C 34.015625 52.0625 34.671875 50.859375 35.4375 50.75 C 35.21875 50.53125 34.890625 50.421875 34.671875 50.421875 C 33.6875 50.421875 32.921875 51.84375 32.921875 53.59375 C 32.921875 55.34375 33.6875 56.765625 34.671875 56.765625 C 35 56.765625 35.21875 56.546875 35.4375 56.328125 C 34.671875 56.328125 34.015625 55.125 34.015625 53.59375 "/>
<path style=" stroke:none;fill-rule:nonzero;fill:rgb(96.078431%,81.960784%,67.45098%);fill-opacity:1;" d="M 21.328125 47.03125 C 14.65625 42.875 12.03125 26.578125 14.21875 19.25 C 15.859375 13.78125 21.875 5.6875 27.34375 3.5 C 31.9375 1.75 42.546875 1.75 47.140625 3.5 C 52.609375 5.578125 58.734375 13.671875 60.265625 19.25 C 62.453125 26.6875 60.8125 42.875 54.140625 47.03125 C 40.140625 55.78125 35.328125 55.78125 21.328125 47.03125 "/>
<path style=" stroke:none;fill-rule:nonzero;fill:rgb(25.882353%,19.607843%,13.72549%);fill-opacity:1;" d="M 10.828125 20.890625 C 14.328125 28.4375 15.203125 28.765625 18.59375 19.796875 C 20.34375 14.984375 19.140625 12.140625 21.21875 9.078125 C 22.421875 7.328125 25.046875 4.59375 25.046875 4.59375 C 25.046875 4.59375 4.046875 6.671875 10.828125 20.890625 "/>
<path style=" stroke:none;fill-rule:nonzero;fill:rgb(58.039216%,44.313725%,31.764706%);fill-opacity:1;" d="M 19.6875 4.265625 C 14.4375 7.546875 3.171875 6.234375 9.84375 20.453125 C 13.34375 28 14.21875 28.328125 17.609375 19.359375 C 19.359375 14.546875 18.15625 11.703125 20.234375 8.640625 C 21.4375 6.890625 25.046875 4.59375 25.046875 4.59375 C 25.046875 4.59375 23.40625 1.96875 19.6875 4.265625 "/>
<path style=" stroke:none;fill-rule:nonzero;fill:rgb(25.882353%,19.607843%,13.72549%);fill-opacity:1;" d="M 63.65625 20.890625 C 60.15625 28.4375 59.28125 28.765625 55.890625 19.796875 C 54.140625 14.984375 55.34375 12.140625 53.265625 9.078125 C 52.0625 7.328125 49.4375 4.59375 49.4375 4.59375 C 49.4375 4.59375 70.4375 6.671875 63.65625 20.890625 "/>
<path style=" stroke:none;fill-rule:nonzero;fill:rgb(58.039216%,44.313725%,31.764706%);fill-opacity:1;" d="M 54.796875 4.265625 C 60.046875 7.546875 71.421875 6.234375 64.75 20.453125 C 61.25 28 60.375 28.328125 56.984375 19.359375 C 55.234375 14.546875 56.4375 11.703125 54.359375 8.640625 C 53.15625 6.890625 49.546875 4.59375 49.546875 4.59375 C 49.546875 4.59375 51.078125 1.96875 54.796875 4.265625 "/>
<path style=" stroke:none;fill-rule:nonzero;fill:rgb(100%,100%,100%);fill-opacity:1;" d="M 23.1875 21 C 26.46875 21 29.09375 23.515625 29.09375 26.6875 C 29.09375 29.859375 26.46875 32.375 23.1875 32.375 C 19.90625 32.375 17.28125 29.859375 17.28125 26.6875 C 17.28125 23.515625 20.015625 21 23.1875 21 "/>
<path style=" stroke:none;fill-rule:nonzero;fill:rgb(24.313725%,26.27451%,27.843137%);fill-opacity:1;" d="M 26.140625 26.6875 C 26.140625 24.332031 24.183594 22.421875 21.765625 22.421875 C 19.347656 22.421875 17.390625 24.332031 17.390625 26.6875 C 17.390625 29.042969 19.347656 30.953125 21.765625 30.953125 C 24.183594 30.953125 26.140625 29.042969 26.140625 26.6875 Z M 26.140625 26.6875 "/>
<path style=" stroke:none;fill-rule:nonzero;fill:rgb(100%,100%,100%);fill-opacity:1;" d="M 57.09375 26.6875 C 57.09375 29.859375 54.46875 32.375 51.1875 32.375 C 47.90625 32.375 45.28125 29.859375 45.28125 26.6875 C 45.28125 23.515625 47.90625 21 51.1875 21 C 54.46875 21 57.09375 23.515625 57.09375 26.6875 "/>
<path style=" stroke:none;fill-rule:nonzero;fill:rgb(24.313725%,26.27451%,27.843137%);fill-opacity:1;" d="M 57.09375 26.6875 C 57.09375 24.332031 55.136719 22.421875 52.71875 22.421875 C 50.300781 22.421875 48.34375 24.332031 48.34375 26.6875 C 48.34375 29.042969 50.300781 30.953125 52.71875 30.953125 C 55.136719 30.953125 57.09375 29.042969 57.09375 26.6875 Z M 57.09375 26.6875 "/>
<path style=" stroke:none;fill-rule:nonzero;fill:rgb(49.019608%,39.215686%,29.411765%);fill-opacity:1;" d="M 27.125 43.859375 L 31.71875 48.453125 C 34.453125 51.1875 40.140625 51.1875 42.875 48.453125 L 47.46875 43.859375 L 42.65625 39.15625 L 31.828125 39.15625 L 27.125 43.859375 "/>
<path style=" stroke:none;fill-rule:nonzero;fill:rgb(94.509804%,35.294118%,38.039216%);fill-opacity:1;" d="M 37.1875 35.109375 C 37.1875 35.109375 32.375 41.78125 33.03125 44.953125 C 33.796875 49.546875 40.6875 49.546875 41.453125 44.953125 C 42 41.78125 37.1875 35.109375 37.1875 35.109375 "/>
<path style=" stroke:none;fill-rule:nonzero;fill:rgb(72.941176%,27.058824%,29.411765%);fill-opacity:1;" d="M 37.1875 46.703125 L 38.28125 40.25 L 36.203125 40.25 L 37.1875 46.703125 "/>
<path style=" stroke:none;fill-rule:nonzero;fill:rgb(25.882353%,19.607843%,13.72549%);fill-opacity:1;" d="M 32.265625 36.96875 L 42.109375 36.96875 L 42.109375 41.34375 L 32.265625 41.34375 Z M 32.265625 36.96875 "/>
<path style=" stroke:none;fill-rule:nonzero;fill:rgb(58.039216%,44.313725%,31.764706%);fill-opacity:1;" d="M 52.828125 37.953125 L 45.828125 30.84375 C 41.5625 26.578125 32.921875 26.578125 28.765625 30.84375 L 21.765625 37.953125 C 19.796875 39.921875 19.796875 43.203125 21.765625 45.28125 C 23.734375 47.25 27.015625 47.25 28.984375 45.28125 L 35.984375 38.171875 C 36.640625 37.515625 37.953125 37.515625 38.609375 38.171875 L 45.609375 45.28125 C 47.578125 47.25 50.859375 47.25 52.828125 45.28125 C 54.796875 43.3125 54.796875 40.03125 52.828125 37.953125 "/>
<path style=" stroke:none;fill-rule:nonzero;fill:rgb(24.313725%,26.27451%,27.843137%);fill-opacity:1;" d="M 31.390625 31.390625 C 31.390625 28.875 34.015625 28.4375 37.1875 28.4375 C 40.359375 28.4375 42.984375 28.875 42.984375 31.390625 C 42.984375 33.359375 38.390625 35.109375 37.1875 35.109375 C 36.09375 35.109375 31.390625 33.359375 31.390625 31.390625 "/>
<path style=" stroke:none;fill-rule:nonzero;fill:rgb(24.313725%,26.27451%,27.843137%);fill-opacity:1;" d="M 29.640625 33.578125 L 28.65625 34.5625 L 29.640625 35.546875 L 30.625 34.5625 Z M 29.640625 33.578125 "/>
<path style=" stroke:none;fill-rule:nonzero;fill:rgb(24.313725%,26.27451%,27.843137%);fill-opacity:1;" d="M 27.34375 36.203125 L 26.359375 37.1875 L 27.34375 38.171875 L 28.328125 37.1875 Z M 27.34375 36.203125 "/>
<path style=" stroke:none;fill-rule:nonzero;fill:rgb(24.313725%,26.27451%,27.843137%);fill-opacity:1;" d="M 30.40625 37.1875 L 29.421875 38.171875 L 30.40625 39.15625 L 31.390625 38.171875 Z M 30.40625 37.1875 "/>
<path style=" stroke:none;fill-rule:nonzero;fill:rgb(24.313725%,26.27451%,27.843137%);fill-opacity:1;" d="M 44.84375 33.578125 L 45.828125 34.5625 L 44.84375 35.546875 L 43.859375 34.5625 Z M 44.84375 33.578125 "/>
<path style=" stroke:none;fill-rule:nonzero;fill:rgb(24.313725%,26.27451%,27.843137%);fill-opacity:1;" d="M 47.140625 36.203125 L 48.125 37.1875 L 47.140625 38.171875 L 46.15625 37.1875 Z M 47.140625 36.203125 "/>
<path style=" stroke:none;fill-rule:nonzero;fill:rgb(24.313725%,26.27451%,27.843137%);fill-opacity:1;" d="M 44.078125 37.1875 L 45.0625 38.171875 L 44.078125 39.15625 L 43.09375 38.171875 Z M 44.078125 37.1875 "/>
</g>
</svg>
