<?xml version="1.0" encoding="UTF-8"?>
<svg xmlns="http://www.w3.org/2000/svg" xmlns:xlink="http://www.w3.org/1999/xlink" width="70px" height="70px" viewBox="0 0 70 70" version="1.1">
<g id="surface1">
<path style=" stroke:none;fill-rule:evenodd;fill:rgb(98.431373%,67.843137%,21.176471%);fill-opacity:1;" d="M 55.085938 33.632812 C 55.089844 33.492188 55.089844 33.351562 55.089844 33.210938 C 55.089844 30.207031 54.261719 27.359375 52.769531 24.804688 C 52.703125 24.90625 52.628906 25.007812 52.554688 25.113281 C 51.785156 26.191406 49.613281 25.816406 48.597656 25.640625 C 48.308594 25.589844 48.113281 25.554688 48.070312 25.578125 C 47.875 25.667969 45.613281 28.632812 45.613281 28.632812 C 45.835938 28.507812 46.003906 28.339844 46.171875 28.171875 C 46.457031 27.886719 46.746094 27.601562 47.289062 27.519531 C 48.042969 27.40625 48.484375 27.398438 49.042969 27.890625 C 49.113281 27.953125 49.183594 28.007812 49.25 28.058594 C 49.527344 28.28125 49.746094 28.453125 49.628906 28.816406 C 49.507812 29.199219 49.355469 29.566406 49.199219 29.929688 C 48.984375 30.445312 48.769531 30.957031 48.65625 31.5 C 48.636719 31.589844 48.617188 31.679688 48.59375 31.769531 C 48.421875 32.546875 48.246094 33.335938 48.847656 33.90625 C 49.511719 34.535156 50.070312 34.0625 50.765625 33.472656 L 50.800781 33.445312 C 51.191406 33.109375 51.054688 32.703125 50.917969 32.304688 C 50.777344 31.898438 50.644531 31.507812 51.09375 31.222656 C 51.386719 31.039062 51.878906 30.855469 52.164062 31.039062 C 52.9375 31.523438 53.929688 32.367188 55.085938 33.632812 Z M 54.753906 36.488281 C 54.699219 36.519531 54.644531 36.546875 54.59375 36.578125 C 54.058594 36.863281 53.570312 37.128906 53.726562 37.703125 C 53.824219 38.054688 54.019531 38.207031 54.28125 38.265625 C 54.472656 37.683594 54.632812 37.089844 54.753906 36.488281 Z M 9.867188 45.695312 C 6.429688 42.265625 4.375 37.929688 4.375 33.210938 C 4.375 22.117188 15.726562 13.125 29.734375 13.125 C 38.632812 13.125 46.460938 16.753906 50.984375 22.246094 C 50.957031 22.246094 50.925781 22.246094 50.898438 22.246094 C 50.105469 22.214844 49.1875 22.851562 48.671875 23.214844 C 48.445312 23.371094 48.292969 23.476562 48.265625 23.449219 C 48.238281 23.421875 48.320312 23.285156 48.445312 23.082031 C 48.761719 22.566406 49.339844 21.621094 49.042969 20.949219 C 48.617188 19.980469 47.582031 19.496094 46.507812 19.746094 C 45.539062 19.972656 45.019531 20.660156 44.851562 21.597656 C 44.773438 22.03125 44.992188 22.5 45.164062 22.871094 C 45.28125 23.125 45.378906 23.335938 45.339844 23.449219 C 45.242188 23.726562 42.402344 26.410156 42.402344 26.410156 C 42.351562 25.789062 42.222656 25.175781 41.730469 24.742188 C 41.140625 24.226562 40.574219 23.824219 39.777344 23.726562 C 39.199219 23.652344 38.949219 24.078125 38.703125 24.496094 C 38.457031 24.917969 38.210938 25.332031 37.632812 25.207031 C 37.558594 25.191406 37.484375 25.175781 37.410156 25.160156 C 37.042969 25.089844 36.726562 25.027344 36.464844 24.742188 C 36.0625 24.308594 36.269531 23.804688 36.492188 23.265625 C 36.664062 22.847656 36.847656 22.410156 36.753906 21.96875 C 36.507812 20.773438 36.027344 19.914062 34.804688 19.558594 C 33.839844 19.28125 33.222656 19.421875 32.367188 19.929688 C 31.757812 20.292969 31.703125 20.910156 31.644531 21.503906 C 31.585938 22.136719 31.53125 22.746094 30.804688 22.984375 C 30.425781 23.109375 29.925781 23.082031 29.535156 23.058594 C 29.257812 23.042969 29.035156 23.03125 28.953125 23.078125 C 28.851562 23.136719 28.753906 23.195312 28.664062 23.25 C 27.351562 24.023438 27.042969 24.203125 26.222656 25.761719 C 25.996094 26.191406 26.316406 26.972656 26.625 27.722656 C 26.996094 28.632812 27.347656 29.496094 26.710938 29.648438 C 25.945312 29.832031 25.21875 29.527344 24.515625 29.234375 C 23.898438 28.980469 23.300781 28.730469 22.710938 28.816406 C 21.648438 28.972656 21.285156 30.121094 21.441406 31.128906 C 21.503906 31.527344 21.742188 31.652344 21.980469 31.777344 C 22.21875 31.902344 22.457031 32.027344 22.515625 32.425781 C 22.703125 33.695312 21.714844 34.804688 20.46875 35.296875 C 19.96875 35.492188 19.476562 35.367188 18.996094 35.246094 C 18.464844 35.113281 17.945312 34.980469 17.445312 35.296875 C 16.824219 35.683594 16.675781 36.140625 16.472656 36.757812 C 16.441406 36.851562 16.40625 36.949219 16.371094 37.054688 C 16.21875 37.496094 16.265625 37.878906 16.335938 38.257812 C 16.335938 38.257812 12.273438 39.738281 11.886719 40.109375 C 11.675781 40.304688 10.71875 43.117188 9.867188 45.695312 Z M 9.867188 45.695312 "/>
<path style="fill:none;stroke-width:5;stroke-linecap:round;stroke-linejoin:miter;stroke:rgb(0%,0%,0%);stroke-opacity:1;stroke-miterlimit:4;" d="M 68.035714 192.232143 C 68.035714 192.232143 73.642857 185.339286 74.839286 181.660714 C 75.660714 179.125 75.089286 177.035714 74.678571 174.892857 M 266.553571 180.392857 C 266.553571 176.910714 261.803571 174.892857 257.642857 174.892857 C 252.357143 174.892857 246.571429 177.678571 245.25 172.821429 C 243.910714 167.964286 252.928571 168.160714 254.267857 163.303571 C 254.982143 160.75 255.839286 158.321429 254.071429 156.267857 C 247.839286 149.071429 244.410714 143 239.732143 141.892857 C 237.714286 141.410714 235.214286 140.464286 233.571429 142.732143 C 230.803571 146.553571 236.714286 149.5 232.232143 152.892857 C 228.821429 155.464286 225.25 158.607143 222.160714 155.696429 C 219.089286 152.767857 220.839286 148.196429 221.660714 144.267857 C 222.553571 140.035714 225.553571 137.928571 227.178571 133.785714 C 228.696429 129.982143 226.339286 127.625 224.678571 126.178571 C 222.107143 123.928571 219.625 125.285714 216.178571 125.803571 C 212.214286 126.410714 211.232143 129.357143 208.517857 130.892857 M 266.553571 180.392857 C 266.553571 182.928571 263 192.214286 263 192.214286 M 266.553571 180.392857 C 266.553571 180.392857 284.839286 184.625 286.178571 185.464286 M 193.839286 120.732143 C 193.607143 117.892857 193.017857 115.089286 190.767857 113.107143 C 188.071429 110.75 185.053571 107.607143 181.839286 108.464286 C 176.660714 109.839286 177.75 118.053571 172.5 116.928571 C 170.375 116.464286 168.125 114.678571 166.696429 113.107143 C 163.428571 109.589286 169 105.696429 169 100.464286 C 169 94.910714 164.696429 91.035714 159.107143 89.410714 C 154.696429 88.142857 151.821429 88.142857 147.928571 90.464286 C 142.178571 93.875 147.232143 102.964286 140.821429 105.071429 C 137.857143 106.053571 137.107143 105.5 132.357143 105.5 C 124.339286 105.5 122.5 109.625 119.875 117.767857 C 117.321429 125.696429 127.446429 134.267857 122.107143 135.535714 C 115.553571 137.089286 109.625 130.892857 103.821429 131.732143 C 98.964286 132.446429 95.535714 135.857143 96.25 140.464286 C 97.071429 145.696429 101.767857 143.785714 102.928571 148.232143 C 104.410714 153.928571 99.267857 159.107143 93.571429 161.357143 C 88.75 163.25 84.107143 158.625 79.75 161.357143 C 76.482143 163.392857 75.910714 165.017857 74.678571 168.553571 C 73.982143 170.571429 74.357143 173.160714 74.678571 174.892857 M 193.839286 120.732143 C 194.25 125.607143 193.625 130.607143 198.785714 131.732143 C 201 132.214286 203.678571 132.035714 205.928571 131.732143 C 206.964286 131.589286 207.803571 131.285714 208.517857 130.892857 M 193.839286 120.732143 C 193.839286 120.732143 206.821429 108.464286 207.267857 107.196429 C 207.714286 105.928571 204.428571 102.089286 205.035714 98.732143 C 205.803571 94.446429 208.178571 91.303571 212.607143 90.267857 C 217.517857 89.125 222.25 91.339286 224.196429 95.767857 C 226.089286 100.053571 220.196429 106.767857 220.642857 107.196429 C 221.089286 107.607143 227.464286 101.5 232.678571 101.696429 C 236.875 101.839286 240.803571 102.25 242.482143 105.928571 C 243.982143 109.196429 242.375 111.857143 240.25 114.803571 C 235.732143 121.125 220.642857 116.5 219.75 116.928571 C 218.857143 117.339286 208.517857 130.892857 208.517857 130.892857 M 74.678571 174.892857 C 74.678571 174.892857 56.107143 181.660714 54.339286 183.357143 M 54.339286 183.357143 C 52.678571 184.910714 40.714286 222.375 38.946429 227.946429 C 38.803571 228.357143 38.964286 228.785714 39.339286 229.035714 C 107.642857 274.517857 263.785714 264.125 299.625 225.232143 C 299.875 224.964286 299.946429 224.625 299.821429 224.285714 C 298.321429 219.660714 287.428571 186.25 286.178571 185.464286 M 54.339286 183.357143 C 54.339286 183.357143 62.803571 192.428571 84.642857 198.160714 C 118.535714 207.053571 164.017857 204.928571 164.017857 204.928571 M 286.178571 185.464286 C 262.910714 192.982143 248.946429 195.821429 223.303571 199.857143 M 110.071429 184.196429 C 110.071429 184.196429 109.625 179.553571 117.196429 174.892857 C 120.142857 173.089286 112.410714 170.517857 113.178571 167.267857 C 113.732143 164.982143 114.982143 163.678571 117.196429 162.625 C 119.875 161.357143 129.232143 163.035714 132.357143 161.357143 C 135.553571 159.607143 135.607143 156.392857 135.482143 152.892857 C 135.357143 149.696429 132.803571 148.339286 133.696429 145.267857 C 135.089286 140.464286 145.732143 144 145.732143 144 M 150.642857 122.839286 C 150.642857 122.839286 156.125 119.964286 155.982143 116.928571 C 155.910714 115.25 152.660714 116.178571 150.642857 115.660714 C 147.732143 114.892857 145.732143 113.107143 145.732143 113.107143 M 179.625 135.535714 C 179.625 135.535714 172.875 130.160714 168.017857 130.892857 C 164.535714 131.410714 164.535714 133.785714 162.232143 136.803571 C 160.107143 139.571429 158.071429 142.928571 160.892857 144.428571 C 164.589286 146.375 166.321429 140.803571 170.25 142.303571 C 173.232143 143.446429 175.607143 144.839286 175.607143 148.660714 C 175.607143 151.303571 172.910714 152.982143 174.714286 155 C 176.839286 157.410714 180.839286 152.785714 183.178571 155 C 185.660714 157.339286 182.732143 163.464286 182.732143 163.464286 M 153.303571 176.160714 C 153.303571 176.160714 155.446429 179.660714 155.089286 182.928571 C 154.839286 185.428571 151.928571 187.232143 152.428571 189.696429 C 153.285714 194.125 161.125 185.607143 165.803571 186.321429 C 169.571429 186.892857 169.607143 190.767857 173.375 191.392857 C 175.267857 191.714286 176.517857 192.107143 178.285714 191.392857 C 181.285714 190.178571 181.839286 184.196429 181.839286 184.196429 M 197.446429 172.357143 C 198.517857 172.357143 202.053571 173.625 203.25 174.892857 C 204.428571 176.160714 197.625 181.732143 199.678571 185.464286 C 202.892857 191.303571 213.946429 176.160714 213.946429 176.160714 M 58.339286 210.625 C 56.982143 213.071429 56.357143 214.446429 55.660714 216.982143 M 60.571429 223.75 C 59.232143 225.75 58.767857 226.821429 58.339286 228.625 M 74.678571 216.982143 C 73.946429 219.75 73.464286 221.25 72.160714 223.75 " transform="matrix(0.21875,0,0,0.21875,0,0)"/>
</g>
</svg>
